<?xml version="1.0" encoding="utf-8" standalone="no"?>
<!DOCTYPE svg PUBLIC "-//W3C//DTD SVG 1.1//EN"
  "http://www.w3.org/Graphics/SVG/1.1/DTD/svg11.dtd">
<svg xmlns:xlink="http://www.w3.org/1999/xlink" width="650.439335pt" height="237.80425pt" viewBox="0 0 650.439335 237.80425" xmlns="http://www.w3.org/2000/svg" version="1.1">
 <metadata>
  <rdf:RDF xmlns:dc="http://purl.org/dc/elements/1.1/" xmlns:cc="http://creativecommons.org/ns#" xmlns:rdf="http://www.w3.org/1999/02/22-rdf-syntax-ns#">
   <cc:Work>
    <dc:type rdf:resource="http://purl.org/dc/dcmitype/StillImage"/>
    <dc:date>2026-05-11T15:37:56.089285</dc:date>
    <dc:format>image/svg+xml</dc:format>
    <dc:creator>
     <cc:Agent>
      <dc:title>Matplotlib v3.10.8, https://matplotlib.org/</dc:title>
     </cc:Agent>
    </dc:creator>
   </cc:Work>
  </rdf:RDF>
 </metadata>
 <defs>
  <style type="text/css">*{stroke-linejoin: round; stroke-linecap: butt}</style>
 </defs>
 <g id="figure_1">
  <g id="patch_1">
   <path d="M 0 237.80425 
L 650.439335 237.80425 
L 650.439335 -0 
L 0 -0 
z
" style="fill: #ffffff"/>
  </g>
  <g id="axes_1">
   <g id="patch_2">
    <path d="M 62.86875 200.248 
L 330.430568 200.248 
L 330.430568 58.848 
L 62.86875 58.848 
z
" style="fill: #ffffff"/>
   </g>
   <g id="patch_3">
    <path d="M 64.206559 200.248 
L 74.909032 200.248 
L 74.909032 83.572787 
L 64.206559 83.572787 
z
" clip-path="url(#pe18faf339f)" style="fill: #1f77b4"/>
   </g>
   <g id="patch_4">
    <path d="M 77.58465 200.248 
L 88.287123 200.248 
L 88.287123 65.581333 
L 77.58465 65.581333 
z
" clip-path="url(#pe18faf339f)" style="fill: #1f77b4"/>
   </g>
   <g id="patch_5">
    <path d="M 90.962741 200.248 
L 101.665214 200.248 
L 101.665214 76.116394 
L 90.962741 76.116394 
z
" clip-path="url(#pe18faf339f)" style="fill: #1f77b4"/>
   </g>
   <g id="patch_6">
    <path d="M 104.340832 200.248 
L 115.043305 200.248 
L 115.043305 95.756997 
L 104.340832 95.756997 
z
" clip-path="url(#pe18faf339f)" style="fill: #1f77b4"/>
   </g>
   <g id="patch_7">
    <path d="M 117.718923 200.248 
L 128.421395 200.248 
L 128.421395 133.461159 
L 117.718923 133.461159 
z
" clip-path="url(#pe18faf339f)" style="fill: #1f77b4"/>
   </g>
   <g id="patch_8">
    <path d="M 131.097014 200.248 
L 141.799486 200.248 
L 141.799486 148.937898 
L 131.097014 148.937898 
z
" clip-path="url(#pe18faf339f)" style="fill: #1f77b4"/>
   </g>
   <g id="patch_9">
    <path d="M 144.475105 200.248 
L 155.177577 200.248 
L 155.177577 143.096949 
L 144.475105 143.096949 
z
" clip-path="url(#pe18faf339f)" style="fill: #1f77b4"/>
   </g>
   <g id="patch_10">
    <path d="M 157.853195 200.248 
L 168.555668 200.248 
L 168.555668 151.135219 
L 157.853195 151.135219 
z
" clip-path="url(#pe18faf339f)" style="fill: #1f77b4"/>
   </g>
   <g id="patch_11">
    <path d="M 171.231286 200.248 
L 181.933759 200.248 
L 181.933759 140.412594 
L 171.231286 140.412594 
z
" clip-path="url(#pe18faf339f)" style="fill: #1f77b4"/>
   </g>
   <g id="patch_12">
    <path d="M 184.609377 200.248 
L 195.31185 200.248 
L 195.31185 141.646207 
L 184.609377 141.646207 
z
" clip-path="url(#pe18faf339f)" style="fill: #1f77b4"/>
   </g>
   <g id="patch_13">
    <path d="M 197.987468 200.248 
L 208.689941 200.248 
L 208.689941 141.337047 
L 197.987468 141.337047 
z
" clip-path="url(#pe18faf339f)" style="fill: #1f77b4"/>
   </g>
   <g id="patch_14">
    <path d="M 211.365559 200.248 
L 222.068032 200.248 
L 222.068032 140.940924 
L 211.365559 140.940924 
z
" clip-path="url(#pe18faf339f)" style="fill: #1f77b4"/>
   </g>
   <g id="patch_15">
    <path d="M 224.74365 200.248 
L 235.446123 200.248 
L 235.446123 140.151431 
L 224.74365 140.151431 
z
" clip-path="url(#pe18faf339f)" style="fill: #1f77b4"/>
   </g>
   <g id="patch_16">
    <path d="M 238.121741 200.248 
L 248.824214 200.248 
L 248.824214 131.585691 
L 238.121741 131.585691 
z
" clip-path="url(#pe18faf339f)" style="fill: #1f77b4"/>
   </g>
   <g id="patch_17">
    <path d="M 251.499832 200.248 
L 262.202305 200.248 
L 262.202305 132.526779 
L 251.499832 132.526779 
z
" clip-path="url(#pe18faf339f)" style="fill: #1f77b4"/>
   </g>
   <g id="patch_18">
    <path d="M 264.877923 200.248 
L 275.580395 200.248 
L 275.580395 134.411226 
L 264.877923 134.411226 
z
" clip-path="url(#pe18faf339f)" style="fill: #1f77b4"/>
   </g>
   <g id="patch_19">
    <path d="M 278.256014 200.248 
L 288.958486 200.248 
L 288.958486 129.573966 
L 278.256014 129.573966 
z
" clip-path="url(#pe18faf339f)" style="fill: #1f77b4"/>
   </g>
   <g id="patch_20">
    <path d="M 291.634105 200.248 
L 302.336577 200.248 
L 302.336577 123.24665 
L 291.634105 123.24665 
z
" clip-path="url(#pe18faf339f)" style="fill: #1f77b4"/>
   </g>
   <g id="patch_21">
    <path d="M 305.012195 200.248 
L 315.714668 200.248 
L 315.714668 131.599143 
L 305.012195 131.599143 
z
" clip-path="url(#pe18faf339f)" style="fill: #1f77b4"/>
   </g>
   <g id="patch_22">
    <path d="M 318.390286 200.248 
L 329.092759 200.248 
L 329.092759 134.764382 
L 318.390286 134.764382 
z
" clip-path="url(#pe18faf339f)" style="fill: #1f77b4"/>
   </g>
   <g id="matplotlib.axis_1">
    <g id="xtick_1">
     <g id="line2d_1">
      <defs>
       <path id="mfb9f6f6c20" d="M 0 0 
L 0 3.5 
" style="stroke: #000000; stroke-width: 0.8"/>
      </defs>
      <g>
       <use xlink:href="#mfb9f6f6c20" x="89.624932" y="200.248" style="stroke: #000000; stroke-width: 0.8"/>
      </g>
     </g>
     <g id="text_1">
      <!-- 2.5 -->
      <g transform="translate(81.673369 214.846437) scale(0.1 -0.1)">
       <defs>
        <path id="DejaVuSans-32" d="M 1228 531 
L 3431 531 
L 3431 0 
L 469 0 
L 469 531 
Q 828 903 1448 1529 
Q 2069 2156 2228 2338 
Q 2531 2678 2651 2914 
Q 2772 3150 2772 3378 
Q 2772 3750 2511 3984 
Q 2250 4219 1831 4219 
Q 1534 4219 1204 4116 
Q 875 4013 500 3803 
L 500 4441 
Q 881 4594 1212 4672 
Q 1544 4750 1819 4750 
Q 2544 4750 2975 4387 
Q 3406 4025 3406 3419 
Q 3406 3131 3298 2873 
Q 3191 2616 2906 2266 
Q 2828 2175 2409 1742 
Q 1991 1309 1228 531 
z
" transform="scale(0.015625)"/>
        <path id="DejaVuSans-2e" d="M 684 794 
L 1344 794 
L 1344 0 
L 684 0 
L 684 794 
z
" transform="scale(0.015625)"/>
        <path id="DejaVuSans-35" d="M 691 4666 
L 3169 4666 
L 3169 4134 
L 1269 4134 
L 1269 2991 
Q 1406 3038 1543 3061 
Q 1681 3084 1819 3084 
Q 2600 3084 3056 2656 
Q 3513 2228 3513 1497 
Q 3513 744 3044 326 
Q 2575 -91 1722 -91 
Q 1428 -91 1123 -41 
Q 819 9 494 109 
L 494 744 
Q 775 591 1075 516 
Q 1375 441 1709 441 
Q 2250 441 2565 725 
Q 2881 1009 2881 1497 
Q 2881 1984 2565 2268 
Q 2250 2553 1709 2553 
Q 1456 2553 1204 2497 
Q 953 2441 691 2322 
L 691 4666 
z
" transform="scale(0.015625)"/>
       </defs>
       <use xlink:href="#DejaVuSans-32"/>
       <use xlink:href="#DejaVuSans-2e" transform="translate(63.623047 0)"/>
       <use xlink:href="#DejaVuSans-35" transform="translate(95.410156 0)"/>
      </g>
     </g>
    </g>
    <g id="xtick_2">
     <g id="line2d_2">
      <g>
       <use xlink:href="#mfb9f6f6c20" x="123.070159" y="200.248" style="stroke: #000000; stroke-width: 0.8"/>
      </g>
     </g>
     <g id="text_2">
      <!-- 5.0 -->
      <g transform="translate(115.118597 214.846437) scale(0.1 -0.1)">
       <defs>
        <path id="DejaVuSans-30" d="M 2034 4250 
Q 1547 4250 1301 3770 
Q 1056 3291 1056 2328 
Q 1056 1369 1301 889 
Q 1547 409 2034 409 
Q 2525 409 2770 889 
Q 3016 1369 3016 2328 
Q 3016 3291 2770 3770 
Q 2525 4250 2034 4250 
z
M 2034 4750 
Q 2819 4750 3233 4129 
Q 3647 3509 3647 2328 
Q 3647 1150 3233 529 
Q 2819 -91 2034 -91 
Q 1250 -91 836 529 
Q 422 1150 422 2328 
Q 422 3509 836 4129 
Q 1250 4750 2034 4750 
z
" transform="scale(0.015625)"/>
       </defs>
       <use xlink:href="#DejaVuSans-35"/>
       <use xlink:href="#DejaVuSans-2e" transform="translate(63.623047 0)"/>
       <use xlink:href="#DejaVuSans-30" transform="translate(95.410156 0)"/>
      </g>
     </g>
    </g>
    <g id="xtick_3">
     <g id="line2d_3">
      <g>
       <use xlink:href="#mfb9f6f6c20" x="156.515386" y="200.248" style="stroke: #000000; stroke-width: 0.8"/>
      </g>
     </g>
     <g id="text_3">
      <!-- 7.5 -->
      <g transform="translate(148.563824 214.846437) scale(0.1 -0.1)">
       <defs>
        <path id="DejaVuSans-37" d="M 525 4666 
L 3525 4666 
L 3525 4397 
L 1831 0 
L 1172 0 
L 2766 4134 
L 525 4134 
L 525 4666 
z
" transform="scale(0.015625)"/>
       </defs>
       <use xlink:href="#DejaVuSans-37"/>
       <use xlink:href="#DejaVuSans-2e" transform="translate(63.623047 0)"/>
       <use xlink:href="#DejaVuSans-35" transform="translate(95.410156 0)"/>
      </g>
     </g>
    </g>
    <g id="xtick_4">
     <g id="line2d_4">
      <g>
       <use xlink:href="#mfb9f6f6c20" x="189.960614" y="200.248" style="stroke: #000000; stroke-width: 0.8"/>
      </g>
     </g>
     <g id="text_4">
      <!-- 10.0 -->
      <g transform="translate(178.827801 214.846437) scale(0.1 -0.1)">
       <defs>
        <path id="DejaVuSans-31" d="M 794 531 
L 1825 531 
L 1825 4091 
L 703 3866 
L 703 4441 
L 1819 4666 
L 2450 4666 
L 2450 531 
L 3481 531 
L 3481 0 
L 794 0 
L 794 531 
z
" transform="scale(0.015625)"/>
       </defs>
       <use xlink:href="#DejaVuSans-31"/>
       <use xlink:href="#DejaVuSans-30" transform="translate(63.623047 0)"/>
       <use xlink:href="#DejaVuSans-2e" transform="translate(127.246094 0)"/>
       <use xlink:href="#DejaVuSans-30" transform="translate(159.033203 0)"/>
      </g>
     </g>
    </g>
    <g id="xtick_5">
     <g id="line2d_5">
      <g>
       <use xlink:href="#mfb9f6f6c20" x="223.405841" y="200.248" style="stroke: #000000; stroke-width: 0.8"/>
      </g>
     </g>
     <g id="text_5">
      <!-- 12.5 -->
      <g transform="translate(212.273028 214.846437) scale(0.1 -0.1)">
       <use xlink:href="#DejaVuSans-31"/>
       <use xlink:href="#DejaVuSans-32" transform="translate(63.623047 0)"/>
       <use xlink:href="#DejaVuSans-2e" transform="translate(127.246094 0)"/>
       <use xlink:href="#DejaVuSans-35" transform="translate(159.033203 0)"/>
      </g>
     </g>
    </g>
    <g id="xtick_6">
     <g id="line2d_6">
      <g>
       <use xlink:href="#mfb9f6f6c20" x="256.851068" y="200.248" style="stroke: #000000; stroke-width: 0.8"/>
      </g>
     </g>
     <g id="text_6">
      <!-- 15.0 -->
      <g transform="translate(245.718256 214.846437) scale(0.1 -0.1)">
       <use xlink:href="#DejaVuSans-31"/>
       <use xlink:href="#DejaVuSans-35" transform="translate(63.623047 0)"/>
       <use xlink:href="#DejaVuSans-2e" transform="translate(127.246094 0)"/>
       <use xlink:href="#DejaVuSans-30" transform="translate(159.033203 0)"/>
      </g>
     </g>
    </g>
    <g id="xtick_7">
     <g id="line2d_7">
      <g>
       <use xlink:href="#mfb9f6f6c20" x="290.296295" y="200.248" style="stroke: #000000; stroke-width: 0.8"/>
      </g>
     </g>
     <g id="text_7">
      <!-- 17.5 -->
      <g transform="translate(279.163483 214.846437) scale(0.1 -0.1)">
       <use xlink:href="#DejaVuSans-31"/>
       <use xlink:href="#DejaVuSans-37" transform="translate(63.623047 0)"/>
       <use xlink:href="#DejaVuSans-2e" transform="translate(127.246094 0)"/>
       <use xlink:href="#DejaVuSans-35" transform="translate(159.033203 0)"/>
      </g>
     </g>
    </g>
    <g id="xtick_8">
     <g id="line2d_8">
      <g>
       <use xlink:href="#mfb9f6f6c20" x="323.741523" y="200.248" style="stroke: #000000; stroke-width: 0.8"/>
      </g>
     </g>
     <g id="text_8">
      <!-- 20.0 -->
      <g transform="translate(312.60871 214.846437) scale(0.1 -0.1)">
       <use xlink:href="#DejaVuSans-32"/>
       <use xlink:href="#DejaVuSans-30" transform="translate(63.623047 0)"/>
       <use xlink:href="#DejaVuSans-2e" transform="translate(127.246094 0)"/>
       <use xlink:href="#DejaVuSans-30" transform="translate(159.033203 0)"/>
      </g>
     </g>
    </g>
    <g id="text_9">
     <!-- residue (Cα index) -->
     <g transform="translate(150.66919 228.524562) scale(0.1 -0.1)">
      <defs>
       <path id="DejaVuSans-72" d="M 2631 2963 
Q 2534 3019 2420 3045 
Q 2306 3072 2169 3072 
Q 1681 3072 1420 2755 
Q 1159 2438 1159 1844 
L 1159 0 
L 581 0 
L 581 3500 
L 1159 3500 
L 1159 2956 
Q 1341 3275 1631 3429 
Q 1922 3584 2338 3584 
Q 2397 3584 2469 3576 
Q 2541 3569 2628 3553 
L 2631 2963 
z
" transform="scale(0.015625)"/>
       <path id="DejaVuSans-65" d="M 3597 1894 
L 3597 1613 
L 953 1613 
Q 991 1019 1311 708 
Q 1631 397 2203 397 
Q 2534 397 2845 478 
Q 3156 559 3463 722 
L 3463 178 
Q 3153 47 2828 -22 
Q 2503 -91 2169 -91 
Q 1331 -91 842 396 
Q 353 884 353 1716 
Q 353 2575 817 3079 
Q 1281 3584 2069 3584 
Q 2775 3584 3186 3129 
Q 3597 2675 3597 1894 
z
M 3022 2063 
Q 3016 2534 2758 2815 
Q 2500 3097 2075 3097 
Q 1594 3097 1305 2825 
Q 1016 2553 972 2059 
L 3022 2063 
z
" transform="scale(0.015625)"/>
       <path id="DejaVuSans-73" d="M 2834 3397 
L 2834 2853 
Q 2591 2978 2328 3040 
Q 2066 3103 1784 3103 
Q 1356 3103 1142 2972 
Q 928 2841 928 2578 
Q 928 2378 1081 2264 
Q 1234 2150 1697 2047 
L 1894 2003 
Q 2506 1872 2764 1633 
Q 3022 1394 3022 966 
Q 3022 478 2636 193 
Q 2250 -91 1575 -91 
Q 1294 -91 989 -36 
Q 684 19 347 128 
L 347 722 
Q 666 556 975 473 
Q 1284 391 1588 391 
Q 1994 391 2212 530 
Q 2431 669 2431 922 
Q 2431 1156 2273 1281 
Q 2116 1406 1581 1522 
L 1381 1569 
Q 847 1681 609 1914 
Q 372 2147 372 2553 
Q 372 3047 722 3315 
Q 1072 3584 1716 3584 
Q 2034 3584 2315 3537 
Q 2597 3491 2834 3397 
z
" transform="scale(0.015625)"/>
       <path id="DejaVuSans-69" d="M 603 3500 
L 1178 3500 
L 1178 0 
L 603 0 
L 603 3500 
z
M 603 4863 
L 1178 4863 
L 1178 4134 
L 603 4134 
L 603 4863 
z
" transform="scale(0.015625)"/>
       <path id="DejaVuSans-64" d="M 2906 2969 
L 2906 4863 
L 3481 4863 
L 3481 0 
L 2906 0 
L 2906 525 
Q 2725 213 2448 61 
Q 2172 -91 1784 -91 
Q 1150 -91 751 415 
Q 353 922 353 1747 
Q 353 2572 751 3078 
Q 1150 3584 1784 3584 
Q 2172 3584 2448 3432 
Q 2725 3281 2906 2969 
z
M 947 1747 
Q 947 1113 1208 752 
Q 1469 391 1925 391 
Q 2381 391 2643 752 
Q 2906 1113 2906 1747 
Q 2906 2381 2643 2742 
Q 2381 3103 1925 3103 
Q 1469 3103 1208 2742 
Q 947 2381 947 1747 
z
" transform="scale(0.015625)"/>
       <path id="DejaVuSans-75" d="M 544 1381 
L 544 3500 
L 1119 3500 
L 1119 1403 
Q 1119 906 1312 657 
Q 1506 409 1894 409 
Q 2359 409 2629 706 
Q 2900 1003 2900 1516 
L 2900 3500 
L 3475 3500 
L 3475 0 
L 2900 0 
L 2900 538 
Q 2691 219 2414 64 
Q 2138 -91 1772 -91 
Q 1169 -91 856 284 
Q 544 659 544 1381 
z
M 1991 3584 
L 1991 3584 
z
" transform="scale(0.015625)"/>
       <path id="DejaVuSans-20" transform="scale(0.015625)"/>
       <path id="DejaVuSans-28" d="M 1984 4856 
Q 1566 4138 1362 3434 
Q 1159 2731 1159 2009 
Q 1159 1288 1364 580 
Q 1569 -128 1984 -844 
L 1484 -844 
Q 1016 -109 783 600 
Q 550 1309 550 2009 
Q 550 2706 781 3412 
Q 1013 4119 1484 4856 
L 1984 4856 
z
" transform="scale(0.015625)"/>
       <path id="DejaVuSans-43" d="M 4122 4306 
L 4122 3641 
Q 3803 3938 3442 4084 
Q 3081 4231 2675 4231 
Q 1875 4231 1450 3742 
Q 1025 3253 1025 2328 
Q 1025 1406 1450 917 
Q 1875 428 2675 428 
Q 3081 428 3442 575 
Q 3803 722 4122 1019 
L 4122 359 
Q 3791 134 3420 21 
Q 3050 -91 2638 -91 
Q 1578 -91 968 557 
Q 359 1206 359 2328 
Q 359 3453 968 4101 
Q 1578 4750 2638 4750 
Q 3056 4750 3426 4639 
Q 3797 4528 4122 4306 
z
" transform="scale(0.015625)"/>
       <path id="DejaVuSans-3b1" d="M 2644 1628 
L 2506 2350 
Q 2366 3091 1809 3091 
Q 1391 3091 1200 2747 
Q 959 2316 959 1747 
Q 959 1059 1194 731 
Q 1431 397 1809 397 
Q 2228 397 2453 1063 
L 2644 1628 
z
M 2966 2584 
L 3275 3500 
L 3788 3500 
L 3147 1603 
L 3272 919 
Q 3300 766 3409 638 
Q 3538 488 3638 488 
L 3913 488 
L 3913 0 
L 3569 0 
Q 3275 0 3013 263 
Q 2884 394 2831 669 
Q 2688 322 2394 50 
Q 2256 -78 1809 -78 
Q 1075 -78 719 397 
Q 353 888 353 1747 
Q 353 2666 750 3097 
Q 1191 3578 1809 3578 
Q 2781 3578 2966 2584 
z
" transform="scale(0.015625)"/>
       <path id="DejaVuSans-6e" d="M 3513 2113 
L 3513 0 
L 2938 0 
L 2938 2094 
Q 2938 2591 2744 2837 
Q 2550 3084 2163 3084 
Q 1697 3084 1428 2787 
Q 1159 2491 1159 1978 
L 1159 0 
L 581 0 
L 581 3500 
L 1159 3500 
L 1159 2956 
Q 1366 3272 1645 3428 
Q 1925 3584 2291 3584 
Q 2894 3584 3203 3211 
Q 3513 2838 3513 2113 
z
" transform="scale(0.015625)"/>
       <path id="DejaVuSans-78" d="M 3513 3500 
L 2247 1797 
L 3578 0 
L 2900 0 
L 1881 1375 
L 863 0 
L 184 0 
L 1544 1831 
L 300 3500 
L 978 3500 
L 1906 2253 
L 2834 3500 
L 3513 3500 
z
" transform="scale(0.015625)"/>
       <path id="DejaVuSans-29" d="M 513 4856 
L 1013 4856 
Q 1481 4119 1714 3412 
Q 1947 2706 1947 2009 
Q 1947 1309 1714 600 
Q 1481 -109 1013 -844 
L 513 -844 
Q 928 -128 1133 580 
Q 1338 1288 1338 2009 
Q 1338 2731 1133 3434 
Q 928 4138 513 4856 
z
" transform="scale(0.015625)"/>
      </defs>
      <use xlink:href="#DejaVuSans-72"/>
      <use xlink:href="#DejaVuSans-65" transform="translate(38.863281 0)"/>
      <use xlink:href="#DejaVuSans-73" transform="translate(100.386719 0)"/>
      <use xlink:href="#DejaVuSans-69" transform="translate(152.486328 0)"/>
      <use xlink:href="#DejaVuSans-64" transform="translate(180.269531 0)"/>
      <use xlink:href="#DejaVuSans-75" transform="translate(243.746094 0)"/>
      <use xlink:href="#DejaVuSans-65" transform="translate(307.125 0)"/>
      <use xlink:href="#DejaVuSans-20" transform="translate(368.648438 0)"/>
      <use xlink:href="#DejaVuSans-28" transform="translate(400.435547 0)"/>
      <use xlink:href="#DejaVuSans-43" transform="translate(439.449219 0)"/>
      <use xlink:href="#DejaVuSans-3b1" transform="translate(509.273438 0)"/>
      <use xlink:href="#DejaVuSans-20" transform="translate(575.191406 0)"/>
      <use xlink:href="#DejaVuSans-69" transform="translate(606.978516 0)"/>
      <use xlink:href="#DejaVuSans-6e" transform="translate(634.761719 0)"/>
      <use xlink:href="#DejaVuSans-64" transform="translate(698.140625 0)"/>
      <use xlink:href="#DejaVuSans-65" transform="translate(761.617188 0)"/>
      <use xlink:href="#DejaVuSans-78" transform="translate(821.390625 0)"/>
      <use xlink:href="#DejaVuSans-29" transform="translate(880.570312 0)"/>
     </g>
    </g>
   </g>
   <g id="matplotlib.axis_2">
    <g id="ytick_1">
     <g id="line2d_9">
      <defs>
       <path id="m53e839206d" d="M 0 0 
L -3.5 0 
" style="stroke: #000000; stroke-width: 0.8"/>
      </defs>
      <g>
       <use xlink:href="#m53e839206d" x="62.86875" y="200.248" style="stroke: #000000; stroke-width: 0.8"/>
      </g>
     </g>
     <g id="text_10">
      <!-- 0.0000 -->
      <g transform="translate(20.878125 204.047219) scale(0.1 -0.1)">
       <use xlink:href="#DejaVuSans-30"/>
       <use xlink:href="#DejaVuSans-2e" transform="translate(63.623047 0)"/>
       <use xlink:href="#DejaVuSans-30" transform="translate(95.410156 0)"/>
       <use xlink:href="#DejaVuSans-30" transform="translate(159.033203 0)"/>
       <use xlink:href="#DejaVuSans-30" transform="translate(222.65625 0)"/>
       <use xlink:href="#DejaVuSans-30" transform="translate(286.279297 0)"/>
      </g>
     </g>
    </g>
    <g id="ytick_2">
     <g id="line2d_10">
      <g>
       <use xlink:href="#m53e839206d" x="62.86875" y="176.978744" style="stroke: #000000; stroke-width: 0.8"/>
      </g>
     </g>
     <g id="text_11">
      <!-- 0.0025 -->
      <g transform="translate(20.878125 180.777962) scale(0.1 -0.1)">
       <use xlink:href="#DejaVuSans-30"/>
       <use xlink:href="#DejaVuSans-2e" transform="translate(63.623047 0)"/>
       <use xlink:href="#DejaVuSans-30" transform="translate(95.410156 0)"/>
       <use xlink:href="#DejaVuSans-30" transform="translate(159.033203 0)"/>
       <use xlink:href="#DejaVuSans-32" transform="translate(222.65625 0)"/>
       <use xlink:href="#DejaVuSans-35" transform="translate(286.279297 0)"/>
      </g>
     </g>
    </g>
    <g id="ytick_3">
     <g id="line2d_11">
      <g>
       <use xlink:href="#m53e839206d" x="62.86875" y="153.709487" style="stroke: #000000; stroke-width: 0.8"/>
      </g>
     </g>
     <g id="text_12">
      <!-- 0.0050 -->
      <g transform="translate(20.878125 157.508706) scale(0.1 -0.1)">
       <use xlink:href="#DejaVuSans-30"/>
       <use xlink:href="#DejaVuSans-2e" transform="translate(63.623047 0)"/>
       <use xlink:href="#DejaVuSans-30" transform="translate(95.410156 0)"/>
       <use xlink:href="#DejaVuSans-30" transform="translate(159.033203 0)"/>
       <use xlink:href="#DejaVuSans-35" transform="translate(222.65625 0)"/>
       <use xlink:href="#DejaVuSans-30" transform="translate(286.279297 0)"/>
      </g>
     </g>
    </g>
    <g id="ytick_4">
     <g id="line2d_12">
      <g>
       <use xlink:href="#m53e839206d" x="62.86875" y="130.440231" style="stroke: #000000; stroke-width: 0.8"/>
      </g>
     </g>
     <g id="text_13">
      <!-- 0.0075 -->
      <g transform="translate(20.878125 134.239449) scale(0.1 -0.1)">
       <use xlink:href="#DejaVuSans-30"/>
       <use xlink:href="#DejaVuSans-2e" transform="translate(63.623047 0)"/>
       <use xlink:href="#DejaVuSans-30" transform="translate(95.410156 0)"/>
       <use xlink:href="#DejaVuSans-30" transform="translate(159.033203 0)"/>
       <use xlink:href="#DejaVuSans-37" transform="translate(222.65625 0)"/>
       <use xlink:href="#DejaVuSans-35" transform="translate(286.279297 0)"/>
      </g>
     </g>
    </g>
    <g id="ytick_5">
     <g id="line2d_13">
      <g>
       <use xlink:href="#m53e839206d" x="62.86875" y="107.170974" style="stroke: #000000; stroke-width: 0.8"/>
      </g>
     </g>
     <g id="text_14">
      <!-- 0.0100 -->
      <g transform="translate(20.878125 110.970193) scale(0.1 -0.1)">
       <use xlink:href="#DejaVuSans-30"/>
       <use xlink:href="#DejaVuSans-2e" transform="translate(63.623047 0)"/>
       <use xlink:href="#DejaVuSans-30" transform="translate(95.410156 0)"/>
       <use xlink:href="#DejaVuSans-31" transform="translate(159.033203 0)"/>
       <use xlink:href="#DejaVuSans-30" transform="translate(222.65625 0)"/>
       <use xlink:href="#DejaVuSans-30" transform="translate(286.279297 0)"/>
      </g>
     </g>
    </g>
    <g id="ytick_6">
     <g id="line2d_14">
      <g>
       <use xlink:href="#m53e839206d" x="62.86875" y="83.901718" style="stroke: #000000; stroke-width: 0.8"/>
      </g>
     </g>
     <g id="text_15">
      <!-- 0.0125 -->
      <g transform="translate(20.878125 87.700936) scale(0.1 -0.1)">
       <use xlink:href="#DejaVuSans-30"/>
       <use xlink:href="#DejaVuSans-2e" transform="translate(63.623047 0)"/>
       <use xlink:href="#DejaVuSans-30" transform="translate(95.410156 0)"/>
       <use xlink:href="#DejaVuSans-31" transform="translate(159.033203 0)"/>
       <use xlink:href="#DejaVuSans-32" transform="translate(222.65625 0)"/>
       <use xlink:href="#DejaVuSans-35" transform="translate(286.279297 0)"/>
      </g>
     </g>
    </g>
    <g id="ytick_7">
     <g id="line2d_15">
      <g>
       <use xlink:href="#m53e839206d" x="62.86875" y="60.632461" style="stroke: #000000; stroke-width: 0.8"/>
      </g>
     </g>
     <g id="text_16">
      <!-- 0.0150 -->
      <g transform="translate(20.878125 64.43168) scale(0.1 -0.1)">
       <use xlink:href="#DejaVuSans-30"/>
       <use xlink:href="#DejaVuSans-2e" transform="translate(63.623047 0)"/>
       <use xlink:href="#DejaVuSans-30" transform="translate(95.410156 0)"/>
       <use xlink:href="#DejaVuSans-31" transform="translate(159.033203 0)"/>
       <use xlink:href="#DejaVuSans-35" transform="translate(222.65625 0)"/>
       <use xlink:href="#DejaVuSans-30" transform="translate(286.279297 0)"/>
      </g>
     </g>
    </g>
    <g id="text_17">
     <!-- normalised importance -->
     <g transform="translate(14.798438 187.468312) rotate(-90) scale(0.1 -0.1)">
      <defs>
       <path id="DejaVuSans-6f" d="M 1959 3097 
Q 1497 3097 1228 2736 
Q 959 2375 959 1747 
Q 959 1119 1226 758 
Q 1494 397 1959 397 
Q 2419 397 2687 759 
Q 2956 1122 2956 1747 
Q 2956 2369 2687 2733 
Q 2419 3097 1959 3097 
z
M 1959 3584 
Q 2709 3584 3137 3096 
Q 3566 2609 3566 1747 
Q 3566 888 3137 398 
Q 2709 -91 1959 -91 
Q 1206 -91 779 398 
Q 353 888 353 1747 
Q 353 2609 779 3096 
Q 1206 3584 1959 3584 
z
" transform="scale(0.015625)"/>
       <path id="DejaVuSans-6d" d="M 3328 2828 
Q 3544 3216 3844 3400 
Q 4144 3584 4550 3584 
Q 5097 3584 5394 3201 
Q 5691 2819 5691 2113 
L 5691 0 
L 5113 0 
L 5113 2094 
Q 5113 2597 4934 2840 
Q 4756 3084 4391 3084 
Q 3944 3084 3684 2787 
Q 3425 2491 3425 1978 
L 3425 0 
L 2847 0 
L 2847 2094 
Q 2847 2600 2669 2842 
Q 2491 3084 2119 3084 
Q 1678 3084 1418 2786 
Q 1159 2488 1159 1978 
L 1159 0 
L 581 0 
L 581 3500 
L 1159 3500 
L 1159 2956 
Q 1356 3278 1631 3431 
Q 1906 3584 2284 3584 
Q 2666 3584 2933 3390 
Q 3200 3197 3328 2828 
z
" transform="scale(0.015625)"/>
       <path id="DejaVuSans-61" d="M 2194 1759 
Q 1497 1759 1228 1600 
Q 959 1441 959 1056 
Q 959 750 1161 570 
Q 1363 391 1709 391 
Q 2188 391 2477 730 
Q 2766 1069 2766 1631 
L 2766 1759 
L 2194 1759 
z
M 3341 1997 
L 3341 0 
L 2766 0 
L 2766 531 
Q 2569 213 2275 61 
Q 1981 -91 1556 -91 
Q 1019 -91 701 211 
Q 384 513 384 1019 
Q 384 1609 779 1909 
Q 1175 2209 1959 2209 
L 2766 2209 
L 2766 2266 
Q 2766 2663 2505 2880 
Q 2244 3097 1772 3097 
Q 1472 3097 1187 3025 
Q 903 2953 641 2809 
L 641 3341 
Q 956 3463 1253 3523 
Q 1550 3584 1831 3584 
Q 2591 3584 2966 3190 
Q 3341 2797 3341 1997 
z
" transform="scale(0.015625)"/>
       <path id="DejaVuSans-6c" d="M 603 4863 
L 1178 4863 
L 1178 0 
L 603 0 
L 603 4863 
z
" transform="scale(0.015625)"/>
       <path id="DejaVuSans-70" d="M 1159 525 
L 1159 -1331 
L 581 -1331 
L 581 3500 
L 1159 3500 
L 1159 2969 
Q 1341 3281 1617 3432 
Q 1894 3584 2278 3584 
Q 2916 3584 3314 3078 
Q 3713 2572 3713 1747 
Q 3713 922 3314 415 
Q 2916 -91 2278 -91 
Q 1894 -91 1617 61 
Q 1341 213 1159 525 
z
M 3116 1747 
Q 3116 2381 2855 2742 
Q 2594 3103 2138 3103 
Q 1681 3103 1420 2742 
Q 1159 2381 1159 1747 
Q 1159 1113 1420 752 
Q 1681 391 2138 391 
Q 2594 391 2855 752 
Q 3116 1113 3116 1747 
z
" transform="scale(0.015625)"/>
       <path id="DejaVuSans-74" d="M 1172 4494 
L 1172 3500 
L 2356 3500 
L 2356 3053 
L 1172 3053 
L 1172 1153 
Q 1172 725 1289 603 
Q 1406 481 1766 481 
L 2356 481 
L 2356 0 
L 1766 0 
Q 1100 0 847 248 
Q 594 497 594 1153 
L 594 3053 
L 172 3053 
L 172 3500 
L 594 3500 
L 594 4494 
L 1172 4494 
z
" transform="scale(0.015625)"/>
       <path id="DejaVuSans-63" d="M 3122 3366 
L 3122 2828 
Q 2878 2963 2633 3030 
Q 2388 3097 2138 3097 
Q 1578 3097 1268 2742 
Q 959 2388 959 1747 
Q 959 1106 1268 751 
Q 1578 397 2138 397 
Q 2388 397 2633 464 
Q 2878 531 3122 666 
L 3122 134 
Q 2881 22 2623 -34 
Q 2366 -91 2075 -91 
Q 1284 -91 818 406 
Q 353 903 353 1747 
Q 353 2603 823 3093 
Q 1294 3584 2113 3584 
Q 2378 3584 2631 3529 
Q 2884 3475 3122 3366 
z
" transform="scale(0.015625)"/>
      </defs>
      <use xlink:href="#DejaVuSans-6e"/>
      <use xlink:href="#DejaVuSans-6f" transform="translate(63.378906 0)"/>
      <use xlink:href="#DejaVuSans-72" transform="translate(124.560547 0)"/>
      <use xlink:href="#DejaVuSans-6d" transform="translate(163.923828 0)"/>
      <use xlink:href="#DejaVuSans-61" transform="translate(261.335938 0)"/>
      <use xlink:href="#DejaVuSans-6c" transform="translate(322.615234 0)"/>
      <use xlink:href="#DejaVuSans-69" transform="translate(350.398438 0)"/>
      <use xlink:href="#DejaVuSans-73" transform="translate(378.181641 0)"/>
      <use xlink:href="#DejaVuSans-65" transform="translate(430.28125 0)"/>
      <use xlink:href="#DejaVuSans-64" transform="translate(491.804688 0)"/>
      <use xlink:href="#DejaVuSans-20" transform="translate(555.28125 0)"/>
      <use xlink:href="#DejaVuSans-69" transform="translate(587.068359 0)"/>
      <use xlink:href="#DejaVuSans-6d" transform="translate(614.851562 0)"/>
      <use xlink:href="#DejaVuSans-70" transform="translate(712.263672 0)"/>
      <use xlink:href="#DejaVuSans-6f" transform="translate(775.740234 0)"/>
      <use xlink:href="#DejaVuSans-72" transform="translate(836.921875 0)"/>
      <use xlink:href="#DejaVuSans-74" transform="translate(878.035156 0)"/>
      <use xlink:href="#DejaVuSans-61" transform="translate(917.244141 0)"/>
      <use xlink:href="#DejaVuSans-6e" transform="translate(978.523438 0)"/>
      <use xlink:href="#DejaVuSans-63" transform="translate(1041.902344 0)"/>
      <use xlink:href="#DejaVuSans-65" transform="translate(1096.882812 0)"/>
     </g>
    </g>
   </g>
   <g id="patch_23">
    <path d="M 62.86875 200.248 
L 62.86875 58.848 
" style="fill: none; stroke: #000000; stroke-width: 0.8; stroke-linejoin: miter; stroke-linecap: square"/>
   </g>
   <g id="patch_24">
    <path d="M 330.430568 200.248 
L 330.430568 58.848 
" style="fill: none; stroke: #000000; stroke-width: 0.8; stroke-linejoin: miter; stroke-linecap: square"/>
   </g>
   <g id="patch_25">
    <path d="M 62.86875 200.248 
L 330.430568 200.248 
" style="fill: none; stroke: #000000; stroke-width: 0.8; stroke-linejoin: miter; stroke-linecap: square"/>
   </g>
   <g id="patch_26">
    <path d="M 62.86875 58.848 
L 330.430568 58.848 
" style="fill: none; stroke: #000000; stroke-width: 0.8; stroke-linejoin: miter; stroke-linecap: square"/>
   </g>
   <g id="text_18">
    <!-- CV 1 -->
    <g transform="translate(182.631222 52.848) scale(0.12 -0.12)">
     <defs>
      <path id="DejaVuSans-56" d="M 1831 0 
L 50 4666 
L 709 4666 
L 2188 738 
L 3669 4666 
L 4325 4666 
L 2547 0 
L 1831 0 
z
" transform="scale(0.015625)"/>
     </defs>
     <use xlink:href="#DejaVuSans-43"/>
     <use xlink:href="#DejaVuSans-56" transform="translate(69.824219 0)"/>
     <use xlink:href="#DejaVuSans-20" transform="translate(138.232422 0)"/>
     <use xlink:href="#DejaVuSans-31" transform="translate(170.019531 0)"/>
    </g>
   </g>
  </g>
  <g id="axes_2">
   <g id="patch_27">
    <path d="M 371.23375 200.248 
L 638.795568 200.248 
L 638.795568 58.848 
L 371.23375 58.848 
z
" style="fill: #ffffff"/>
   </g>
   <g id="patch_28">
    <path d="M 372.571559 200.248 
L 383.274032 200.248 
L 383.274032 98.516405 
L 372.571559 98.516405 
z
" clip-path="url(#p6d934c0193)" style="fill: #1f77b4"/>
   </g>
   <g id="patch_29">
    <path d="M 385.94965 200.248 
L 396.652123 200.248 
L 396.652123 80.893227 
L 385.94965 80.893227 
z
" clip-path="url(#p6d934c0193)" style="fill: #1f77b4"/>
   </g>
   <g id="patch_30">
    <path d="M 399.327741 200.248 
L 410.030214 200.248 
L 410.030214 79.263639 
L 399.327741 79.263639 
z
" clip-path="url(#p6d934c0193)" style="fill: #1f77b4"/>
   </g>
   <g id="patch_31">
    <path d="M 412.705832 200.248 
L 423.408305 200.248 
L 423.408305 92.991724 
L 412.705832 92.991724 
z
" clip-path="url(#p6d934c0193)" style="fill: #1f77b4"/>
   </g>
   <g id="patch_32">
    <path d="M 426.083923 200.248 
L 436.786395 200.248 
L 436.786395 95.320625 
L 426.083923 95.320625 
z
" clip-path="url(#p6d934c0193)" style="fill: #1f77b4"/>
   </g>
   <g id="patch_33">
    <path d="M 439.462014 200.248 
L 450.164486 200.248 
L 450.164486 88.367124 
L 439.462014 88.367124 
z
" clip-path="url(#p6d934c0193)" style="fill: #1f77b4"/>
   </g>
   <g id="patch_34">
    <path d="M 452.840105 200.248 
L 463.542577 200.248 
L 463.542577 106.147944 
L 452.840105 106.147944 
z
" clip-path="url(#p6d934c0193)" style="fill: #1f77b4"/>
   </g>
   <g id="patch_35">
    <path d="M 466.218195 200.248 
L 476.920668 200.248 
L 476.920668 95.404226 
L 466.218195 95.404226 
z
" clip-path="url(#p6d934c0193)" style="fill: #1f77b4"/>
   </g>
   <g id="patch_36">
    <path d="M 479.596286 200.248 
L 490.298759 200.248 
L 490.298759 82.785407 
L 479.596286 82.785407 
z
" clip-path="url(#p6d934c0193)" style="fill: #1f77b4"/>
   </g>
   <g id="patch_37">
    <path d="M 492.974377 200.248 
L 503.67685 200.248 
L 503.67685 83.593385 
L 492.974377 83.593385 
z
" clip-path="url(#p6d934c0193)" style="fill: #1f77b4"/>
   </g>
   <g id="patch_38">
    <path d="M 506.352468 200.248 
L 517.054941 200.248 
L 517.054941 127.313849 
L 506.352468 127.313849 
z
" clip-path="url(#p6d934c0193)" style="fill: #1f77b4"/>
   </g>
   <g id="patch_39">
    <path d="M 519.730559 200.248 
L 530.433032 200.248 
L 530.433032 118.273392 
L 519.730559 118.273392 
z
" clip-path="url(#p6d934c0193)" style="fill: #1f77b4"/>
   </g>
   <g id="patch_40">
    <path d="M 533.10865 200.248 
L 543.811123 200.248 
L 543.811123 128.015212 
L 533.10865 128.015212 
z
" clip-path="url(#p6d934c0193)" style="fill: #1f77b4"/>
   </g>
   <g id="patch_41">
    <path d="M 546.486741 200.248 
L 557.189214 200.248 
L 557.189214 127.114322 
L 546.486741 127.114322 
z
" clip-path="url(#p6d934c0193)" style="fill: #1f77b4"/>
   </g>
   <g id="patch_42">
    <path d="M 559.864832 200.248 
L 570.567305 200.248 
L 570.567305 116.173869 
L 559.864832 116.173869 
z
" clip-path="url(#p6d934c0193)" style="fill: #1f77b4"/>
   </g>
   <g id="patch_43">
    <path d="M 573.242923 200.248 
L 583.945395 200.248 
L 583.945395 103.216044 
L 573.242923 103.216044 
z
" clip-path="url(#p6d934c0193)" style="fill: #1f77b4"/>
   </g>
   <g id="patch_44">
    <path d="M 586.621014 200.248 
L 597.323486 200.248 
L 597.323486 98.417519 
L 586.621014 98.417519 
z
" clip-path="url(#p6d934c0193)" style="fill: #1f77b4"/>
   </g>
   <g id="patch_45">
    <path d="M 599.999105 200.248 
L 610.701577 200.248 
L 610.701577 72.790313 
L 599.999105 72.790313 
z
" clip-path="url(#p6d934c0193)" style="fill: #1f77b4"/>
   </g>
   <g id="patch_46">
    <path d="M 613.377195 200.248 
L 624.079668 200.248 
L 624.079668 65.581333 
L 613.377195 65.581333 
z
" clip-path="url(#p6d934c0193)" style="fill: #1f77b4"/>
   </g>
   <g id="patch_47">
    <path d="M 626.755286 200.248 
L 637.457759 200.248 
L 637.457759 71.152312 
L 626.755286 71.152312 
z
" clip-path="url(#p6d934c0193)" style="fill: #1f77b4"/>
   </g>
   <g id="matplotlib.axis_3">
    <g id="xtick_9">
     <g id="line2d_16">
      <g>
       <use xlink:href="#mfb9f6f6c20" x="397.989932" y="200.248" style="stroke: #000000; stroke-width: 0.8"/>
      </g>
     </g>
     <g id="text_19">
      <!-- 2.5 -->
      <g transform="translate(390.038369 214.846437) scale(0.1 -0.1)">
       <use xlink:href="#DejaVuSans-32"/>
       <use xlink:href="#DejaVuSans-2e" transform="translate(63.623047 0)"/>
       <use xlink:href="#DejaVuSans-35" transform="translate(95.410156 0)"/>
      </g>
     </g>
    </g>
    <g id="xtick_10">
     <g id="line2d_17">
      <g>
       <use xlink:href="#mfb9f6f6c20" x="431.435159" y="200.248" style="stroke: #000000; stroke-width: 0.8"/>
      </g>
     </g>
     <g id="text_20">
      <!-- 5.0 -->
      <g transform="translate(423.483597 214.846437) scale(0.1 -0.1)">
       <use xlink:href="#DejaVuSans-35"/>
       <use xlink:href="#DejaVuSans-2e" transform="translate(63.623047 0)"/>
       <use xlink:href="#DejaVuSans-30" transform="translate(95.410156 0)"/>
      </g>
     </g>
    </g>
    <g id="xtick_11">
     <g id="line2d_18">
      <g>
       <use xlink:href="#mfb9f6f6c20" x="464.880386" y="200.248" style="stroke: #000000; stroke-width: 0.8"/>
      </g>
     </g>
     <g id="text_21">
      <!-- 7.5 -->
      <g transform="translate(456.928824 214.846437) scale(0.1 -0.1)">
       <use xlink:href="#DejaVuSans-37"/>
       <use xlink:href="#DejaVuSans-2e" transform="translate(63.623047 0)"/>
       <use xlink:href="#DejaVuSans-35" transform="translate(95.410156 0)"/>
      </g>
     </g>
    </g>
    <g id="xtick_12">
     <g id="line2d_19">
      <g>
       <use xlink:href="#mfb9f6f6c20" x="498.325614" y="200.248" style="stroke: #000000; stroke-width: 0.8"/>
      </g>
     </g>
     <g id="text_22">
      <!-- 10.0 -->
      <g transform="translate(487.192801 214.846437) scale(0.1 -0.1)">
       <use xlink:href="#DejaVuSans-31"/>
       <use xlink:href="#DejaVuSans-30" transform="translate(63.623047 0)"/>
       <use xlink:href="#DejaVuSans-2e" transform="translate(127.246094 0)"/>
       <use xlink:href="#DejaVuSans-30" transform="translate(159.033203 0)"/>
      </g>
     </g>
    </g>
    <g id="xtick_13">
     <g id="line2d_20">
      <g>
       <use xlink:href="#mfb9f6f6c20" x="531.770841" y="200.248" style="stroke: #000000; stroke-width: 0.8"/>
      </g>
     </g>
     <g id="text_23">
      <!-- 12.5 -->
      <g transform="translate(520.638028 214.846437) scale(0.1 -0.1)">
       <use xlink:href="#DejaVuSans-31"/>
       <use xlink:href="#DejaVuSans-32" transform="translate(63.623047 0)"/>
       <use xlink:href="#DejaVuSans-2e" transform="translate(127.246094 0)"/>
       <use xlink:href="#DejaVuSans-35" transform="translate(159.033203 0)"/>
      </g>
     </g>
    </g>
    <g id="xtick_14">
     <g id="line2d_21">
      <g>
       <use xlink:href="#mfb9f6f6c20" x="565.216068" y="200.248" style="stroke: #000000; stroke-width: 0.8"/>
      </g>
     </g>
     <g id="text_24">
      <!-- 15.0 -->
      <g transform="translate(554.083256 214.846437) scale(0.1 -0.1)">
       <use xlink:href="#DejaVuSans-31"/>
       <use xlink:href="#DejaVuSans-35" transform="translate(63.623047 0)"/>
       <use xlink:href="#DejaVuSans-2e" transform="translate(127.246094 0)"/>
       <use xlink:href="#DejaVuSans-30" transform="translate(159.033203 0)"/>
      </g>
     </g>
    </g>
    <g id="xtick_15">
     <g id="line2d_22">
      <g>
       <use xlink:href="#mfb9f6f6c20" x="598.661295" y="200.248" style="stroke: #000000; stroke-width: 0.8"/>
      </g>
     </g>
     <g id="text_25">
      <!-- 17.5 -->
      <g transform="translate(587.528483 214.846437) scale(0.1 -0.1)">
       <use xlink:href="#DejaVuSans-31"/>
       <use xlink:href="#DejaVuSans-37" transform="translate(63.623047 0)"/>
       <use xlink:href="#DejaVuSans-2e" transform="translate(127.246094 0)"/>
       <use xlink:href="#DejaVuSans-35" transform="translate(159.033203 0)"/>
      </g>
     </g>
    </g>
    <g id="xtick_16">
     <g id="line2d_23">
      <g>
       <use xlink:href="#mfb9f6f6c20" x="632.106523" y="200.248" style="stroke: #000000; stroke-width: 0.8"/>
      </g>
     </g>
     <g id="text_26">
      <!-- 20.0 -->
      <g transform="translate(620.97371 214.846437) scale(0.1 -0.1)">
       <use xlink:href="#DejaVuSans-32"/>
       <use xlink:href="#DejaVuSans-30" transform="translate(63.623047 0)"/>
       <use xlink:href="#DejaVuSans-2e" transform="translate(127.246094 0)"/>
       <use xlink:href="#DejaVuSans-30" transform="translate(159.033203 0)"/>
      </g>
     </g>
    </g>
    <g id="text_27">
     <!-- residue (Cα index) -->
     <g transform="translate(459.03419 228.524562) scale(0.1 -0.1)">
      <use xlink:href="#DejaVuSans-72"/>
      <use xlink:href="#DejaVuSans-65" transform="translate(38.863281 0)"/>
      <use xlink:href="#DejaVuSans-73" transform="translate(100.386719 0)"/>
      <use xlink:href="#DejaVuSans-69" transform="translate(152.486328 0)"/>
      <use xlink:href="#DejaVuSans-64" transform="translate(180.269531 0)"/>
      <use xlink:href="#DejaVuSans-75" transform="translate(243.746094 0)"/>
      <use xlink:href="#DejaVuSans-65" transform="translate(307.125 0)"/>
      <use xlink:href="#DejaVuSans-20" transform="translate(368.648438 0)"/>
      <use xlink:href="#DejaVuSans-28" transform="translate(400.435547 0)"/>
      <use xlink:href="#DejaVuSans-43" transform="translate(439.449219 0)"/>
      <use xlink:href="#DejaVuSans-3b1" transform="translate(509.273438 0)"/>
      <use xlink:href="#DejaVuSans-20" transform="translate(575.191406 0)"/>
      <use xlink:href="#DejaVuSans-69" transform="translate(606.978516 0)"/>
      <use xlink:href="#DejaVuSans-6e" transform="translate(634.761719 0)"/>
      <use xlink:href="#DejaVuSans-64" transform="translate(698.140625 0)"/>
      <use xlink:href="#DejaVuSans-65" transform="translate(761.617188 0)"/>
      <use xlink:href="#DejaVuSans-78" transform="translate(821.390625 0)"/>
      <use xlink:href="#DejaVuSans-29" transform="translate(880.570312 0)"/>
     </g>
    </g>
   </g>
   <g id="matplotlib.axis_4">
    <g id="ytick_8">
     <g id="line2d_24">
      <g>
       <use xlink:href="#m53e839206d" x="371.23375" y="200.248" style="stroke: #000000; stroke-width: 0.8"/>
      </g>
     </g>
     <g id="text_28">
      <!-- 0.00 -->
      <g transform="translate(341.968125 204.047219) scale(0.1 -0.1)">
       <use xlink:href="#DejaVuSans-30"/>
       <use xlink:href="#DejaVuSans-2e" transform="translate(63.623047 0)"/>
       <use xlink:href="#DejaVuSans-30" transform="translate(95.410156 0)"/>
       <use xlink:href="#DejaVuSans-30" transform="translate(159.033203 0)"/>
      </g>
     </g>
    </g>
    <g id="ytick_9">
     <g id="line2d_25">
      <g>
       <use xlink:href="#m53e839206d" x="371.23375" y="175.586503" style="stroke: #000000; stroke-width: 0.8"/>
      </g>
     </g>
     <g id="text_29">
      <!-- 0.05 -->
      <g transform="translate(341.968125 179.385722) scale(0.1 -0.1)">
       <use xlink:href="#DejaVuSans-30"/>
       <use xlink:href="#DejaVuSans-2e" transform="translate(63.623047 0)"/>
       <use xlink:href="#DejaVuSans-30" transform="translate(95.410156 0)"/>
       <use xlink:href="#DejaVuSans-35" transform="translate(159.033203 0)"/>
      </g>
     </g>
    </g>
    <g id="ytick_10">
     <g id="line2d_26">
      <g>
       <use xlink:href="#m53e839206d" x="371.23375" y="150.925006" style="stroke: #000000; stroke-width: 0.8"/>
      </g>
     </g>
     <g id="text_30">
      <!-- 0.10 -->
      <g transform="translate(341.968125 154.724225) scale(0.1 -0.1)">
       <use xlink:href="#DejaVuSans-30"/>
       <use xlink:href="#DejaVuSans-2e" transform="translate(63.623047 0)"/>
       <use xlink:href="#DejaVuSans-31" transform="translate(95.410156 0)"/>
       <use xlink:href="#DejaVuSans-30" transform="translate(159.033203 0)"/>
      </g>
     </g>
    </g>
    <g id="ytick_11">
     <g id="line2d_27">
      <g>
       <use xlink:href="#m53e839206d" x="371.23375" y="126.263509" style="stroke: #000000; stroke-width: 0.8"/>
      </g>
     </g>
     <g id="text_31">
      <!-- 0.15 -->
      <g transform="translate(341.968125 130.062728) scale(0.1 -0.1)">
       <use xlink:href="#DejaVuSans-30"/>
       <use xlink:href="#DejaVuSans-2e" transform="translate(63.623047 0)"/>
       <use xlink:href="#DejaVuSans-31" transform="translate(95.410156 0)"/>
       <use xlink:href="#DejaVuSans-35" transform="translate(159.033203 0)"/>
      </g>
     </g>
    </g>
    <g id="ytick_12">
     <g id="line2d_28">
      <g>
       <use xlink:href="#m53e839206d" x="371.23375" y="101.602012" style="stroke: #000000; stroke-width: 0.8"/>
      </g>
     </g>
     <g id="text_32">
      <!-- 0.20 -->
      <g transform="translate(341.968125 105.401231) scale(0.1 -0.1)">
       <use xlink:href="#DejaVuSans-30"/>
       <use xlink:href="#DejaVuSans-2e" transform="translate(63.623047 0)"/>
       <use xlink:href="#DejaVuSans-32" transform="translate(95.410156 0)"/>
       <use xlink:href="#DejaVuSans-30" transform="translate(159.033203 0)"/>
      </g>
     </g>
    </g>
    <g id="ytick_13">
     <g id="line2d_29">
      <g>
       <use xlink:href="#m53e839206d" x="371.23375" y="76.940515" style="stroke: #000000; stroke-width: 0.8"/>
      </g>
     </g>
     <g id="text_33">
      <!-- 0.25 -->
      <g transform="translate(341.968125 80.739734) scale(0.1 -0.1)">
       <use xlink:href="#DejaVuSans-30"/>
       <use xlink:href="#DejaVuSans-2e" transform="translate(63.623047 0)"/>
       <use xlink:href="#DejaVuSans-32" transform="translate(95.410156 0)"/>
       <use xlink:href="#DejaVuSans-35" transform="translate(159.033203 0)"/>
      </g>
     </g>
    </g>
   </g>
   <g id="patch_48">
    <path d="M 371.23375 200.248 
L 371.23375 58.848 
" style="fill: none; stroke: #000000; stroke-width: 0.8; stroke-linejoin: miter; stroke-linecap: square"/>
   </g>
   <g id="patch_49">
    <path d="M 638.795568 200.248 
L 638.795568 58.848 
" style="fill: none; stroke: #000000; stroke-width: 0.8; stroke-linejoin: miter; stroke-linecap: square"/>
   </g>
   <g id="patch_50">
    <path d="M 371.23375 200.248 
L 638.795568 200.248 
" style="fill: none; stroke: #000000; stroke-width: 0.8; stroke-linejoin: miter; stroke-linecap: square"/>
   </g>
   <g id="patch_51">
    <path d="M 371.23375 58.848 
L 638.795568 58.848 
" style="fill: none; stroke: #000000; stroke-width: 0.8; stroke-linejoin: miter; stroke-linecap: square"/>
   </g>
   <g id="text_34">
    <!-- CV 2 -->
    <g transform="translate(490.996222 52.848) scale(0.12 -0.12)">
     <use xlink:href="#DejaVuSans-43"/>
     <use xlink:href="#DejaVuSans-56" transform="translate(69.824219 0)"/>
     <use xlink:href="#DejaVuSans-20" transform="translate(138.232422 0)"/>
     <use xlink:href="#DejaVuSans-32" transform="translate(170.019531 0)"/>
    </g>
   </g>
  </g>
  <g id="text_35">
   <!-- LLE (k=5) — per-Cα importance -->
   <g transform="translate(230.996875 16.318125) scale(0.12 -0.12)">
    <defs>
     <path id="DejaVuSans-4c" d="M 628 4666 
L 1259 4666 
L 1259 531 
L 3531 531 
L 3531 0 
L 628 0 
L 628 4666 
z
" transform="scale(0.015625)"/>
     <path id="DejaVuSans-45" d="M 628 4666 
L 3578 4666 
L 3578 4134 
L 1259 4134 
L 1259 2753 
L 3481 2753 
L 3481 2222 
L 1259 2222 
L 1259 531 
L 3634 531 
L 3634 0 
L 628 0 
L 628 4666 
z
" transform="scale(0.015625)"/>
     <path id="DejaVuSans-6b" d="M 581 4863 
L 1159 4863 
L 1159 1991 
L 2875 3500 
L 3609 3500 
L 1753 1863 
L 3688 0 
L 2938 0 
L 1159 1709 
L 1159 0 
L 581 0 
L 581 4863 
z
" transform="scale(0.015625)"/>
     <path id="DejaVuSans-3d" d="M 678 2906 
L 4684 2906 
L 4684 2381 
L 678 2381 
L 678 2906 
z
M 678 1631 
L 4684 1631 
L 4684 1100 
L 678 1100 
L 678 1631 
z
" transform="scale(0.015625)"/>
     <path id="DejaVuSans-2014" d="M 313 1978 
L 6088 1978 
L 6088 1528 
L 313 1528 
L 313 1978 
z
" transform="scale(0.015625)"/>
     <path id="DejaVuSans-2d" d="M 313 2009 
L 1997 2009 
L 1997 1497 
L 313 1497 
L 313 2009 
z
" transform="scale(0.015625)"/>
    </defs>
    <use xlink:href="#DejaVuSans-4c"/>
    <use xlink:href="#DejaVuSans-4c" transform="translate(55.712891 0)"/>
    <use xlink:href="#DejaVuSans-45" transform="translate(111.425781 0)"/>
    <use xlink:href="#DejaVuSans-20" transform="translate(174.609375 0)"/>
    <use xlink:href="#DejaVuSans-28" transform="translate(206.396484 0)"/>
    <use xlink:href="#DejaVuSans-6b" transform="translate(245.410156 0)"/>
    <use xlink:href="#DejaVuSans-3d" transform="translate(303.320312 0)"/>
    <use xlink:href="#DejaVuSans-35" transform="translate(387.109375 0)"/>
    <use xlink:href="#DejaVuSans-29" transform="translate(450.732422 0)"/>
    <use xlink:href="#DejaVuSans-20" transform="translate(489.746094 0)"/>
    <use xlink:href="#DejaVuSans-2014" transform="translate(521.533203 0)"/>
    <use xlink:href="#DejaVuSans-20" transform="translate(621.533203 0)"/>
    <use xlink:href="#DejaVuSans-70" transform="translate(653.320312 0)"/>
    <use xlink:href="#DejaVuSans-65" transform="translate(716.796875 0)"/>
    <use xlink:href="#DejaVuSans-72" transform="translate(778.320312 0)"/>
    <use xlink:href="#DejaVuSans-2d" transform="translate(813.058594 0)"/>
    <use xlink:href="#DejaVuSans-43" transform="translate(849.142578 0)"/>
    <use xlink:href="#DejaVuSans-3b1" transform="translate(918.966797 0)"/>
    <use xlink:href="#DejaVuSans-20" transform="translate(984.884766 0)"/>
    <use xlink:href="#DejaVuSans-69" transform="translate(1016.671875 0)"/>
    <use xlink:href="#DejaVuSans-6d" transform="translate(1044.455078 0)"/>
    <use xlink:href="#DejaVuSans-70" transform="translate(1141.867188 0)"/>
    <use xlink:href="#DejaVuSans-6f" transform="translate(1205.34375 0)"/>
    <use xlink:href="#DejaVuSans-72" transform="translate(1266.525391 0)"/>
    <use xlink:href="#DejaVuSans-74" transform="translate(1307.638672 0)"/>
    <use xlink:href="#DejaVuSans-61" transform="translate(1346.847656 0)"/>
    <use xlink:href="#DejaVuSans-6e" transform="translate(1408.126953 0)"/>
    <use xlink:href="#DejaVuSans-63" transform="translate(1471.505859 0)"/>
    <use xlink:href="#DejaVuSans-65" transform="translate(1526.486328 0)"/>
   </g>
  </g>
 </g>
 <defs>
  <clipPath id="pe18faf339f">
   <rect x="62.86875" y="58.848" width="267.561818" height="141.4"/>
  </clipPath>
  <clipPath id="p6d934c0193">
   <rect x="371.23375" y="58.848" width="267.561818" height="141.4"/>
  </clipPath>
 </defs>
</svg>
